#!OML:ASF E:\Mandelcareful walks\Project 1\Capture day 1\Session 1\Subject1.ASF
:FULLY-SPECIFIED
:DEGREES
669
root -27.0861 15.3768 0.799774 521.154 -97.2921 -162.117
lowerback 15.2966 -0.992365 0.0933936
upperback 9.37565 -1.82236 0.0538198
thorax 1.3548 -1.13422 0.247943
lowerneck -14.1962 2.91238 -5.86391
upperneck 47.2556 3.73656 -0.0892515
head 21.4627 -0.45873 1.50209
rclavicle 1.56046e-014 -3.18055e-015
rhumerus 26.159 -20.679 -22.3419
rradius 154.295
rwrist -27.4231
rhand -18.6078 -44.1816
rfingers 7.12502
rthumb 7.68371 285.978
lclavicle 1.56046e-014 -3.18055e-015
lhumerus -5.46938 -16.8767 38.942
lradius 133.735
lwrist 13.2869
lhand -44.5164 323.399
lfingers 7.12502
lthumb -17.3183 -7.35276
rfemur -27.2403 -12.8212 19.3413
rtibia 55.9903
rfoot -19.7179 -3.70847
rtoes -0.376008
lfemur -15.6039 1.50754 -12.6143
ltibia 85.3544
lfoot -14.505 9.2203
ltoes -18.1981
670
root -27.6754 15.4474 0.820878 527.538 -96.7628 -168.409
lowerback 14.7358 -0.457547 0.479134
upperback 9.20365 -1.05158 0.611016
thorax 1.46881 -0.738214 0.500074
lowerneck -13.6224 2.42773 -6.13451
upperneck 46.9204 3.05147 -0.111951
head 21.055 -0.731066 1.39596
rclavicle 1.49089e-014 7.95139e-016
rhumerus 23.6225 -17.4309 -21.8667
rradius 153.879
rwrist -24.0817
rhand -20.9311 -41.6339
rfingers 7.12502
rthumb 5.44083 288.456
lclavicle 1.49089e-014 7.95139e-016
lhumerus -10.2706 -21.8971 40.8438
lradius 132.913
lwrist 13.1227
lhand -41.0001 325.067
lfingers 7.12502
lthumb -13.9317 -5.4195
rfemur -24.3297 -12.086 19.9977
rtibia 55.2367
rfoot -20.8374 -3.58217
rtoes -1.52405
lfemur -18.6416 2.47886 -12.2907
ltibia 84.6301
lfoot -15.9913 9.69938
ltoes -16.5971
671
root -28.2658 15.5482 0.840613 532.791 -96.1936 -173.437
lowerback 14.0094 0.0931311 0.588625
upperback 8.98633 -0.291683 0.956769
thorax 1.61874 -0.350555 0.696283
lowerneck -13.101 2.02271 -6.29544
upperneck 46.6994 2.39703 -0.0355451
head 20.7557 -0.975065 1.33144
rclavicle 4.37326e-015 -9.14409e-015
rhumerus 20.8209 -14.3986 -21.7876
rradius 153.025
rwrist -21.4967
rhand -24.3762 -37.3855
rfingers 7.12502
rthumb 2.11404 292.645
lclavicle 4.37326e-015 -9.14409e-015
lhumerus -15.5806 -27.0575 43.5115
lradius 131.86
lwrist 12.4168
lhand -37.4993 328.524
lfingers 7.12502
lthumb -10.5563 -1.76154
rfemur -21.3981 -10.7345 20.4873
rtibia 54.0898
rfoot -21.235 -3.80375
rtoes -2.06207
lfemur -21.5768 3.17274 -12.4383
ltibia 82.6462
lfoot -17.2033 10.3338
ltoes -16.0828
672
root -28.8622 15.6821 0.868633 540.047 -95.709 -180.494
lowerback 13.1575 0.59453 0.890522
upperback 8.84355 0.414072 1.22899
thorax 1.91557 0.0184832 0.72627
lowerneck -12.8661 1.63025 -6.54219
upperneck 46.6329 1.69989 0.300386
head 20.6593 -1.23052 1.41303
rclavicle -1.27222e-014 -1.35174e-014
rhumerus 17.7127 -10.7697 -22.0177
rradius 151.583
rwrist -18.8773
rhand -29.1382 -31.1487
rfingers 7.12502
rthumb -2.48519 298.886
lclavicle -1.27222e-014 -1.35174e-014
lhumerus -21.4453 -31.6708 47.3682
lradius 130.582
lwrist 11.2064
lhand -33.2725 330.837
lfingers 7.12502
lthumb -6.47726 0.717596
rfemur -18.4841 -9.22723 21.0619
rtibia 52.9153
rfoot -20.1472 -3.99671
rtoes -0.244196
lfemur -24.1161 3.4934 -12.6198
ltibia 79.4622
lfoot -18.1592 11.1492
ltoes -17.5599
673
root -29.4584 15.8304 0.916011 542.953 -95.3458 -182.958
lowerback 11.7913 1.07883 1.00346
upperback 8.9059 1.05995 1.21169
thorax 2.7127 0.357562 0.590956
lowerneck -13.0311 1.19412 -6.73498
upperneck 46.4603 0.993985 0.655092
head 20.6183 -1.46511 1.49919
rclavicle -3.06128e-014 -1.19271e-015
rhumerus 14.6674 -6.79558 -22.5625
rradius 149.44
rwrist -15.7536
rhand -35.2293 -24.466
rfingers 7.12502
rthumb -8.3661 305.72
lclavicle -3.06128e-014 -1.19271e-015
lhumerus -27.3499 -35.2213 52.0531
lradius 129.035
lwrist 10.1058
lhand -28.8559 334.536
lfingers 7.12502
lthumb -2.21255 4.50427
rfemur -16.2129 -8.05078 20.937
rtibia 52.1069
rfoot -18.3837 -3.64379
rtoes -1.67986
lfemur -26.1445 3.50869 -13.5634
ltibia 75.3151
lfoot -19.4904 11.6352
ltoes -17.6426
674
root -30.0609 15.9692 0.972826 547.854 -94.9777 -187.461
lowerback 10.6635 1.50723 0.973541
upperback 8.74678 1.63519 1.40334
thorax 3.14508 0.6516 0.776531
lowerneck -13.1336 0.872519 -6.93945
upperneck 46.3943 0.536457 0.799485
head 20.6323 -1.64687 1.52378
rclavicle -3.08116e-014 1.55052e-014
rhumerus 11.8419 -2.77399 -23.1025
rradius 146.825
rwrist -13.3668
rhand -40.7549 -15.8625
rfingers 7.12502
rthumb -13.6954 314.608
lclavicle -3.08116e-014 1.55052e-014
lhumerus -34.3752 -37.7538 58.1261
lradius 127.456
lwrist 9.58433
lhand -25.4379 335.194
lfingers 7.12502
lthumb 1.08866 5.1709
rfemur -14.2979 -7.20784 20.8548
rtibia 51.6737
rfoot -15.1006 -2.49538
rtoes -0.241084
lfemur -27.302 3.3056 -14.2358
ltibia 70.6818
lfoot -21.5479 10.4301
ltoes -11.9652
675
root -30.6684 16.112 1.03129 552.588 -94.747 -191.797
lowerback 9.42965 1.90011 0.910934
upperback 8.61271 2.15988 1.57032
thorax 3.66334 0.918506 0.978741
lowerneck -13.3074 0.583094 -7.23797
upperneck 46.3213 0.0760475 1.16769
head 20.6635 -1.81591 1.68067
rclavicle -1.09332e-014 -6.36111e-015
rhumerus 8.77311 1.85343 -23.7613
rradius 144.236
rwrist -9.62691
rhand -45.0664 -10.2027
rfingers 7.12502
rthumb -17.8475 320.596
lclavicle -1.09332e-014 -6.36111e-015
lhumerus -41.2811 -39.2366 64.4597
lradius 125.878
lwrist 9.62416
lhand -23.2339 335.465
lfingers 7.12502
lthumb 3.21725 5.42015
rfemur -12.7351 -6.80244 20.6401
rtibia 51.6328
rfoot -11.1022 -1.4719
rtoes 2.9936
lfemur -27.8793 2.87726 -14.7737
ltibia 65.8019
lfoot -23.5839 7.92405
ltoes -3.92542
676
root -31.2762 16.2667 1.09231 562.648 -94.8115 -201.148
lowerback 7.7996 2.12635 1.4381
upperback 8.46608 2.48657 1.72557
thorax 4.42093 1.11728 0.881164
lowerneck -13.792 0.387346 -7.56437
upperneck 46.3954 -0.272924 1.69071
head 20.8964 -1.93709 1.94663
rclavicle 1.74931e-014 1.35174e-014
rhumerus 6.09304 6.02743 -25.1724
rradius 141.501
rwrist -6.81278
rhand -47.2768 -2.85271
rfingers 7.12502
rthumb -19.9733 328.154
lclavicle 1.74931e-014 1.35174e-014
lhumerus -47.7411 -39.7244 70.4639
lradius 124.462
lwrist 9.912
lhand -23.0213 335.174
lfingers 7.12502
lthumb 3.42258 5.126
rfemur -11.6483 -6.75509 20.9187
rtibia 51.4108
rfoot -8.43837 -1.05407
rtoes -3.50311
lfemur -28.689 2.918 -14.85
ltibia 60.9576
lfoot -23.9989 6.12256
ltoes -1.03056
677
root -31.9055 16.429 1.15577 556.55 -94.3122 -194.255
lowerback 5.78416 2.39259 0.669338
upperback 8.48251 2.82965 1.36161
thorax 5.54016 1.27012 1.00404
lowerneck -14.4561 0.228808 -7.55296
upperneck 46.3032 -0.540812 2.02294
head 21.0582 -1.97756 2.06963
rclavicle 3.37934e-015 1.39149e-014
rhumerus 3.73504 10.0812 -27.2022
rradius 140.519
rwrist -6.46577
rhand -46.0478 -3.36156
rfingers 7.12502
rthumb -18.7917 327.526
lclavicle 3.37934e-015 1.39149e-014
lhumerus -53.4111 -39.7456 75.835
lradius 123.188
lwrist 10.8317
lhand -24.6938 334.215
lfingers 7.12502
lthumb 1.80731 4.18749
rfemur -10.6141 -6.91967 19.4734
rtibia 51.2197
rfoot -5.99551 -0.263614
rtoes -8.29749
lfemur -29.1818 3.44929 -16.7452
ltibia 55.7889
lfoot -22.8091 6.02849
ltoes -2.12069
678
root -32.5672 16.6634 1.21177 570.347 -94.1826 -207.145
lowerback 3.6193 2.7317 1.22054
upperback 8.33342 3.28807 1.44422
thorax 6.6333 1.53823 0.884467
lowerneck -14.796 0.0611125 -7.28084
upperneck 45.8429 -0.799578 2.11531
head 20.8408 -1.97531 2.01581
rclavicle -1.35174e-014 3.97569e-015
rhumerus 1.12497 14.3495 -29.5555
rradius 139.514
rwrist -6.0189
rhand -44.4806 -3.81046
rfingers 7.12502
rthumb -17.2838 326.938
lclavicle -1.35174e-014 3.97569e-015
lhumerus -57.278 -38.8592 79.3751
lradius 122.121
lwrist 9.56756
lhand -24.3761 334.025
lfingers 7.12502
lthumb 2.11411 3.99407
rfemur -9.4907 -6.67348 19.907
rtibia 50.4701
rfoot -3.29167 0.0659149
rtoes -6.83808
lfemur -30.9117 3.19581 -16.2377
ltibia 50.6745
lfoot -20.5196 7.2224
ltoes -3.38927
